<svg width="400" height="400" viewBox="0 0 400 400" xmlns="http://www.w3.org/2000/svg">
<rect x="0" y="0" width="400" height="400" fill="#080808"/>
<polygon points="200,30 295,83 295,190 200,243 105,190 105,83"
  fill="none" stroke="#e24b4a" stroke-width="1.5" opacity="0.9"/>
<polygon points="200,55 270,96 270,176 200,217 130,176 130,96"
  fill="none" stroke="#e24b4a" stroke-width="0.5" opacity="0.35"/>
<circle cx="200" cy="30" r="3" fill="#e24b4a"/>
<circle cx="295" cy="83" r="3" fill="#e24b4a"/>
<circle cx="295" cy="190" r="3" fill="#e24b4a"/>
<circle cx="200" cy="243" r="3" fill="#e24b4a"/>
<circle cx="105" cy="190" r="3" fill="#e24b4a"/>
<circle cx="105" cy="83" r="3" fill="#e24b4a"/>
<line x1="200" y1="113" x2="200" y2="160" stroke="#e24b4a" stroke-width="1" opacity="0.6"/>
<line x1="175" y1="136" x2="225" y2="136" stroke="#e24b4a" stroke-width="1" opacity="0.6"/>
<circle cx="200" cy="136" r="14" fill="none" stroke="#e24b4a" stroke-width="1" opacity="0.5"/>
<circle cx="200" cy="136" r="4" fill="#e24b4a" opacity="0.9"/>
<polyline points="92,72 92,60 105,60" fill="none" stroke="#e24b4a" stroke-width="1" opacity="0.6"/>
<polyline points="295,60 308,60 308,72" fill="none" stroke="#e24b4a" stroke-width="1" opacity="0.6"/>
<polyline points="92,200 92,212 105,212" fill="none" stroke="#e24b4a" stroke-width="1" opacity="0.6"/>
<polyline points="295,212 308,212 308,200" fill="none" stroke="#e24b4a" stroke-width="1" opacity="0.6"/>
<text x="200" y="296" text-anchor="middle"
  font-family="'Courier New',monospace"
  font-size="44" font-weight="700" letter-spacing="10"
  fill="#e24b4a">CIPHER</text>
<text x="200" y="322" text-anchor="middle"
  font-family="'Courier New',monospace"
  font-size="10" letter-spacing="3" fill="#555">AI SECURITY SWARM</text>
<text x="200" y="358" text-anchor="middle"
  font-family="'Courier New',monospace"
  font-size="9" letter-spacing="2" fill="#333">LEGAL BY DESIGN</text>
<rect x="318" y="14" width="68" height="20" rx="3" fill="none" stroke="#e24b4a" stroke-width="0.5" opacity="0.4"/>
<text x="352" y="28" text-anchor="middle"
  font-family="'Courier New',monospace"
  font-size="9" letter-spacing="1" fill="#e24b4a" opacity="0.7">9 AGENTS</text>
</svg>
